# xmcd CD database file
#
# Track frame offsets:
#	150
#	51640
#	57290
#	84135
#	114820
#	121210
#	181307
#
# Disc length: 2708 seconds
#
# Revision: 2
# Processed by: cddbd v1.5.2PL0 Copyright (c) Steve Scherf et al.
# Submitted via: CDex 1.70beta2
#
DISCID=520a9207
DTITLE=高柳昌行 - Independence
DYEAR=1969
DGENRE=Jazz
TTITLE0=銀河系
TTITLE1=病気のおばさん
TTITLE2=習作第３番アップ・アンド・ダウン
TTITLE3=スペインの牧童の笛
TTITLE4=夜の沼
TTITLE5=ピラニア
TTITLE6=集団投射
EXTD=YEAR: 1969
EXTT0=
EXTT1=
EXTT2=
EXTT3=
EXTT4=
EXTT5=
EXTT6=
PLAYORDER=
